<svg id="Layer_1" data-name="Layer 1" xmlns="http://www.w3.org/2000/svg" viewBox="0 0 1366 768"><circle cx="1132.2" cy="76.8" r="73.84"/><circle cx="703.11" cy="11.68" r="8.72"/><circle cx="68.96" cy="256.08" r="8.72"/><circle cx="77.5" cy="23.31" r="8.72"/><circle cx="797.3" cy="186.1" r="30.82"/><circle cx="183.32" cy="202.38" r="30.82"/><path d="M899.63,15.26a37.12,37.12,0,1,1-37.12,37.12,37.17,37.17,0,0,1,37.12-37.12m0-3a40.12,40.12,0,1,0,40.12,40.12,40.12,40.12,0,0,0-40.12-40.12Z"/><path d="M265.88,14.26A21.84,21.84,0,1,1,244,36.1a21.87,21.87,0,0,1,21.84-21.84m0-2A23.84,23.84,0,1,0,289.72,36.1a23.84,23.84,0,0,0-23.84-23.84Z"/><path d="M44.88,102.26A21.84,21.84,0,1,1,23,124.1a21.87,21.87,0,0,1,21.84-21.84m0-2A23.84,23.84,0,1,0,68.72,124.1a23.84,23.84,0,0,0-23.84-23.84Z"/><path d="M564.73,18.91a4.4,4.4,0,1,1-4.4,4.4,4.4,4.4,0,0,1,4.4-4.4m0-2a6.4,6.4,0,1,0,6.39,6.4,6.4,6.4,0,0,0-6.39-6.4Z"/><path d="M152.43,23.47a11.21,11.21,0,1,1-11.21,11.21,11.22,11.22,0,0,1,11.21-11.21m0-1a12.21,12.21,0,1,0,12.21,12.21,12.21,12.21,0,0,0-12.21-12.21Z"/><path d="M413.56,41.19a61.19,61.19,0,1,1-61.19,61.19,61.26,61.26,0,0,1,61.19-61.19m0-8a69.19,69.19,0,1,0,69.19,69.19,69.19,69.19,0,0,0-69.19-69.19Z"/><circle cx="1315.34" cy="352.97" r="48.84"/><circle cx="186.8" cy="364.02" r="73.84"/><circle cx="54" cy="543.02" r="25"/><circle cx="615.89" cy="429.14" r="8.72"/><circle cx="185.89" cy="502.14" r="8.72"/><circle cx="588.89" cy="304.14" r="8.72"/><circle cx="940.04" cy="678.74" r="8.72"/><circle cx="983.35" cy="448.91" r="8.72"/><circle cx="274.02" cy="468.68" r="8.72"/><circle cx="1241.5" cy="417.51" r="8.72"/><circle cx="797.3" cy="482.63" r="19.19"/><circle cx="512.4" cy="437.28" r="30.82"/><circle cx="481" cy="268.67" r="21.51"/><circle cx="1135.68" cy="238.43" r="30.82"/><circle cx="593.8" cy="154.71" r="30.82"/><path d="M419.37,351.32a37.12,37.12,0,1,1-37.12,37.12,37.16,37.16,0,0,1,37.12-37.12m0-3a40.12,40.12,0,1,0,40.12,40.12,40.12,40.12,0,0,0-40.12-40.12Z"/><path d="M257.37,671.32a37.12,37.12,0,1,1-37.12,37.12,37.16,37.16,0,0,1,37.12-37.12m0-3a40.12,40.12,0,1,0,40.12,40.12,40.12,40.12,0,0,0-40.12-40.12Z"/><path d="M1053.12,382.88a21.84,21.84,0,1,1-21.84,21.84,21.87,21.87,0,0,1,21.84-21.84m0-2A23.84,23.84,0,1,0,1077,404.72a23.84,23.84,0,0,0-23.84-23.84Z"/><path d="M754.27,413.11a4.4,4.4,0,1,1-4.39,4.4,4.41,4.41,0,0,1,4.39-4.4m0-2a6.4,6.4,0,1,0,6.4,6.4,6.4,6.4,0,0,0-6.4-6.4Z"/><path d="M1170.57,417.93a11.21,11.21,0,1,1-11.21,11.21,11.22,11.22,0,0,1,11.21-11.21m0-1a12.21,12.21,0,1,0,12.21,12.21,12.21,12.21,0,0,0-12.21-12.21Z"/><path d="M905.44,277.25a61.19,61.19,0,1,1-61.19,61.19,61.26,61.26,0,0,1,61.19-61.19m0-8a69.19,69.19,0,1,0,69.19,69.19,69.19,69.19,0,0,0-69.19-69.19Z"/><path d="M1295,107.47a61.19,61.19,0,1,1-61.18,61.19A61.26,61.26,0,0,1,1295,107.47m0-8a69.19,69.19,0,1,0,69.19,69.19A69.18,69.18,0,0,0,1295,99.47Z"/><circle cx="493.7" cy="695.71" r="30.82"/><circle cx="1107.68" cy="679.43" r="30.82"/><circle cx="60.17" cy="709.94" r="30.82"/><path d="M1267,548.47a61.19,61.19,0,1,1-61.18,61.19A61.26,61.26,0,0,1,1267,548.47m0-8a69.19,69.19,0,1,0,69.19,69.19A69.18,69.18,0,0,0,1267,540.47Z"/><circle cx="1104.2" cy="517.8" r="73.84"/><circle cx="810" cy="613.15" r="21.51"/><circle cx="155.32" cy="643.38" r="30.82"/><circle cx="697.2" cy="727.11" r="30.82"/><path d="M385.56,482.19a61.19,61.19,0,1,1-61.19,61.19,61.26,61.26,0,0,1,61.19-61.19m0-8a69.19,69.19,0,1,0,69.19,69.19,69.19,69.19,0,0,0-69.19-69.19Z"/></svg>