<svg xmlns="http://www.w3.org/2000/svg" viewBox="0 0 1282 325"><g id="Layer_2" data-name="Layer 2"><g id="Layer_1-2" data-name="Layer 1"><circle cx="64" cy="154" r="42"/><circle cx="1034.5" cy="144.5" r="63.5"/><circle cx="1260.5" cy="144.5" r="21.5"/><circle cx="665.5" cy="88.5" r="7.5"/><circle cx="7.5" cy="158.5" r="7.5"/><circle cx="349.5" cy="71.5" r="7.5"/><circle cx="959.5" cy="54.5" r="7.5"/><circle cx="127.5" cy="98.5" r="7.5"/><circle cx="509.5" cy="42.5" r="16.5"/><circle cx="754.5" cy="81.5" r="26.5"/><circle cx="707.5" cy="158.5" r="26.5"/><circle cx="218.5" cy="252.5" r="26.5"/><circle cx="651.5" cy="298.5" r="26.5"/><path d="M834.5,92A31.5,31.5,0,1,1,803,123.5,31.53,31.53,0,0,1,834.5,92m0-3A34.5,34.5,0,1,0,869,123.5,34.5,34.5,0,0,0,834.5,89Z"/><path d="M289.5,91A18.5,18.5,0,1,1,271,109.5,18.52,18.52,0,0,1,289.5,91m0-2A20.5,20.5,0,1,0,310,109.5,20.5,20.5,0,0,0,289.5,89Z"/><path d="M728.5,2A3.5,3.5,0,1,1,725,5.5,3.5,3.5,0,0,1,728.5,2m0-2A5.5,5.5,0,1,0,734,5.5,5.5,5.5,0,0,0,728.5,0Z"/><path d="M546.5,95a3.5,3.5,0,1,1-3.5,3.5,3.5,3.5,0,0,1,3.5-3.5m0-2a5.5,5.5,0,1,0,5.5,5.5,5.5,5.5,0,0,0-5.5-5.5Z"/><path d="M188.5,79a9.5,9.5,0,1,1-9.5,9.5,9.51,9.51,0,0,1,9.5-9.5m0-1A10.5,10.5,0,1,0,199,88.5,10.5,10.5,0,0,0,188.5,78Z"/><path d="M667.5,52a9.5,9.5,0,1,1-9.5,9.5,9.51,9.51,0,0,1,9.5-9.5m0-1A10.5,10.5,0,1,0,678,61.5,10.5,10.5,0,0,0,667.5,51Z"/><path d="M416.5,115A51.5,51.5,0,1,1,365,166.5,51.55,51.55,0,0,1,416.5,115m0-8A59.5,59.5,0,1,0,476,166.5,59.5,59.5,0,0,0,416.5,107Z"/><path d="M552.5,214A51.5,51.5,0,1,1,501,265.5,51.55,51.55,0,0,1,552.5,214m0-8A59.5,59.5,0,1,0,612,265.5,59.5,59.5,0,0,0,552.5,206Z"/></g></g></svg>